<?xml version="1.0" encoding="UTF-8" standalone="no"?>
<svg
   xmlns:dc="http://purl.org/dc/elements/1.1/"
   xmlns:cc="http://creativecommons.org/ns#"
   xmlns:rdf="http://www.w3.org/1999/02/22-rdf-syntax-ns#"
   xmlns:svg="http://www.w3.org/2000/svg"
   xmlns="http://www.w3.org/2000/svg"
   xmlns:sodipodi="http://sodipodi.sourceforge.net/DTD/sodipodi-0.dtd"
   xmlns:inkscape="http://www.inkscape.org/namespaces/inkscape"
   width="107.80952mm"
   height="231.9142mm"
   viewBox="0 0 107.80952 231.9142"
   version="1.1"
   id="svg8"
   inkscape:version="1.0.1 (c497b03c, 2020-09-10)"
   sodipodi:docname="am43_inkscape.svg">
  <defs
     id="defs2" />
  <sodipodi:namedview
     id="base"
     pagecolor="#ffffff"
     bordercolor="#666666"
     borderopacity="1.0"
     inkscape:pageopacity="0.0"
     inkscape:pageshadow="2"
     inkscape:zoom="0.46706492"
     inkscape:cx="220.12008"
     inkscape:cy="460.34191"
     inkscape:document-units="mm"
     inkscape:current-layer="layer1"
     inkscape:document-rotation="0"
     showgrid="false"
     inkscape:window-width="1252"
     inkscape:window-height="943"
     inkscape:window-x="1151"
     inkscape:window-y="1247"
     inkscape:window-maximized="0" />
  <metadata
     id="metadata5">
    <rdf:RDF>
      <cc:Work
         rdf:about="">
        <dc:format>image/svg+xml</dc:format>
        <dc:type
           rdf:resource="http://purl.org/dc/dcmitype/StillImage" />
        <dc:title></dc:title>
      </cc:Work>
    </rdf:RDF>
  </metadata>
  <g
     inkscape:label="Layer 1"
     inkscape:groupmode="layer"
     id="layer1"
     transform="translate(-53.440475,-42.712363)">
    <rect
       style="fill:#ffffff;fill-opacity:1;fill-rule:evenodd;stroke:#000000;stroke-width:5;stroke-miterlimit:4;stroke-dasharray:none;stroke-opacity:1"
       id="rect10"
       width="102.80952"
       height="212.42261"
       x="55.940475"
       y="51.404762"
       rx="21.630947"
       ry="30.702381" />
    <path
       style="fill:none;stroke:#000000;stroke-width:4;stroke-linecap:butt;stroke-linejoin:miter;stroke-miterlimit:4;stroke-dasharray:none;stroke-opacity:1"
       d="m 55.634526,138.95118 c 33.615871,3.39102 67.231744,4.0839 100.847614,0.14406 l -0.75595,-0.75596 v 0"
       id="path839"
       sodipodi:nodetypes="cccc" />
    <path
       sodipodi:type="star"
       style="fill:#ffffff;fill-opacity:1;stroke:#000000;stroke-width:4.28498;stroke-miterlimit:4;stroke-dasharray:none;stroke-opacity:1"
       id="path841"
       sodipodi:sides="9"
       sodipodi:cx="-106.2887"
       sodipodi:cy="-87.675209"
       sodipodi:r1="35.331757"
       sodipodi:r2="44.72374"
       sodipodi:arg1="-0.58190512"
       sodipodi:arg2="-0.23283927"
       inkscape:flatsided="false"
       inkscape:rounded="0.64"
       inkscape:randomized="0"
       d="m -76.771943,-107.09413 c 5.873363,8.927517 11.534357,-1.29861 14.000124,9.099316 2.465768,10.397926 -7.184257,3.802659 -8.423494,14.416855 -1.239237,10.614196 9.670564,6.419346 4.875793,15.969584 -4.794771,9.550238 -7.947762,-1.704946 -15.719746,5.629434 -7.771985,7.33438 3.281805,11.133622 -6.529977,15.36751 -9.811782,4.233887 -4.992421,-6.414788 -15.660557,-5.792062 -10.66813,0.622726 -4.64254,10.638354 -14.8803,7.574808 -10.23775,-3.063546 0.29893,-8.123079 -8.27361,-14.503387 -8.57255,-6.380309 -10.3946,5.165281 -16.26796,-3.762232 -5.87337,-8.927512 5.45041,-6.030491 2.98464,-16.428417 -2.46577,-10.397926 -11.2829,-2.724684 -10.04367,-13.33888 1.23924,-10.614199 8.05158,-1.11617 12.84635,-10.666409 4.79477,-9.55024 -6.89181,-9.33974 0.88017,-16.67412 7.77199,-7.33438 6.88533,4.32042 16.69711,0.0865 9.81179,-4.23388 0.72404,-11.58462 11.39217,-12.20735 10.668137,-0.62272 2.49736,7.73544 12.735109,10.79898 10.237752,3.06355 8.001098,-8.40893 16.573643,-2.02862 8.572545,6.3803 -3.059159,7.53095 2.814205,16.45846 z"
       inkscape:transform-center-x="-0.86085136"
       inkscape:transform-center-y="-0.52424528"
       transform="rotate(-94.659675,81.650037,-98.39514)" />
    <g
       id="g857"
       style="opacity:1"
       transform="translate(0.52916667,0.52916663)">
      <path
         style="color:#000000;font-style:normal;font-variant:normal;font-weight:normal;font-stretch:normal;font-size:medium;line-height:normal;font-family:sans-serif;font-variant-ligatures:normal;font-variant-position:normal;font-variant-caps:normal;font-variant-numeric:normal;font-variant-alternates:normal;font-variant-east-asian:normal;font-feature-settings:normal;font-variation-settings:normal;text-indent:0;text-align:start;text-decoration:none;text-decoration-line:none;text-decoration-style:solid;text-decoration-color:#000000;letter-spacing:normal;word-spacing:normal;text-transform:none;writing-mode:lr-tb;direction:ltr;text-orientation:mixed;dominant-baseline:auto;baseline-shift:baseline;text-anchor:start;white-space:normal;shape-padding:0;shape-margin:0;inline-size:0;clip-rule:nonzero;display:inline;overflow:visible;visibility:visible;isolation:auto;mix-blend-mode:normal;color-interpolation:sRGB;color-interpolation-filters:linearRGB;solid-color:#000000;solid-opacity:1;vector-effect:none;fill:none;fill-opacity:1;fill-rule:nonzero;stroke:none;stroke-width:3.33344;stroke-linecap:butt;stroke-linejoin:miter;stroke-miterlimit:4;stroke-dasharray:none;stroke-dashoffset:0;stroke-opacity:1;color-rendering:auto;image-rendering:auto;shape-rendering:auto;text-rendering:auto;enable-background:accumulate;stop-color:#000000;stop-opacity:1"
         d="m 108.07079,193.82481 c 8.51299,0 15.36641,5.75118 15.36641,12.89501 v 51.61373 c 0,7.14383 -8.08292,15.76384 -16.59591,15.76384 -8.512996,0 -14.136914,-8.62001 -14.136914,-15.76384 v -51.61373 c 0,-7.14383 6.85342,-12.89501 15.366414,-12.89501 z"
         id="path859"
         sodipodi:nodetypes="sssssss" />
      <path
         style="color:#000000;font-style:normal;font-variant:normal;font-weight:normal;font-stretch:normal;font-size:medium;line-height:normal;font-family:sans-serif;font-variant-ligatures:normal;font-variant-position:normal;font-variant-caps:normal;font-variant-numeric:normal;font-variant-alternates:normal;font-variant-east-asian:normal;font-feature-settings:normal;font-variation-settings:normal;text-indent:0;text-align:start;text-decoration:none;text-decoration-line:none;text-decoration-style:solid;text-decoration-color:#000000;letter-spacing:normal;word-spacing:normal;text-transform:none;writing-mode:lr-tb;direction:ltr;text-orientation:mixed;dominant-baseline:auto;baseline-shift:baseline;text-anchor:start;white-space:normal;shape-padding:0;shape-margin:0;inline-size:0;clip-rule:nonzero;display:inline;overflow:visible;visibility:visible;isolation:auto;mix-blend-mode:normal;color-interpolation:sRGB;color-interpolation-filters:linearRGB;solid-color:#000000;solid-opacity:1;vector-effect:none;fill:#000000;fill-opacity:1;fill-rule:nonzero;stroke:none;stroke-width:3.33344;stroke-linecap:butt;stroke-linejoin:miter;stroke-miterlimit:4;stroke-dasharray:none;stroke-dashoffset:0;stroke-opacity:1;color-rendering:auto;image-rendering:auto;shape-rendering:auto;text-rendering:auto;enable-background:accumulate;stop-color:#000000;stop-opacity:1"
         d="m 106.4828,192.68737 c -9.263647,0 -17.033192,6.3527 -17.033192,14.5625 v 51.61328 c 0,8.20981 8.999051,6.36386 18.262692,6.36386 9.26366,0 15.80371,1.84595 15.80371,-6.36386 v -51.61328 c 0,-8.2098 -7.76955,-14.5625 -17.03321,-14.5625 z m 0,3.33399 c 7.76233,0 13.69922,5.15066 13.69922,11.22851 v 51.61328 c 0,6.07786 -6.34672,3.85151 -14.10905,3.85151 -7.762325,0 -13.289377,2.22635 -13.289377,-3.85151 v -51.61328 c 0,-6.07785 5.936886,-11.22851 13.699207,-11.22851 z"
         id="path861"
         sodipodi:nodetypes="ssssssssssssss" />
    </g>
    <circle
       style="fill:none;fill-opacity:1;stroke:#000000;stroke-width:2.54364;stroke-miterlimit:4;stroke-dasharray:none;stroke-opacity:1"
       id="path863"
       cx="107.62369"
       cy="88.17572"
       r="10.174573" />
    <circle
       style="fill:none;fill-opacity:1;stroke:#000000;stroke-width:2.5;stroke-miterlimit:4;stroke-dasharray:none;stroke-opacity:1"
       id="path865"
       cx="106.93884"
       cy="215.27614"
       r="9" />
    <circle
       style="fill:none;fill-opacity:1;stroke:#000000;stroke-width:2.5;stroke-miterlimit:4;stroke-dasharray:none;stroke-opacity:1"
       id="path865-8"
       cx="106.78529"
       cy="245.74051"
       r="9" />
  </g>
</svg>
